# xmcd
#
# Track frame offsets:
# 150
# 18523
# 39268
# 58619
# 74449
# 90825
# 103236
# 121446
# 136069
# 153805
# 169797
# 185776
# 203453
# 220104
# 241161
# 257579
# 273080
# 291843
# 306879
# 323487
#
# Disc length: 4478 seconds
#
# Revision: 0
# Processed by: cddbd v1.4PL0 Copyright (c) Steve Scherf et al.
# Submitted via: Audion 2.6.0 (http://www.panic.com/audion/)
#
DISCID=0d117c14
DTITLE=neil - Mudvayne
DYEAR=1900
DGENRE=
TTITLE0=korn
TTITLE1=korn
TTITLE2=korn
TTITLE3=linkin park
TTITLE4=linkin park
TTITLE5=mudvayne
TTITLE6=mudvayne
TTITLE7=mushroomhead
TTITLE8=powerman 5000
TTITLE9=4:20
TTITLE10=sysyem of a down
TTITLE11=adema
TTITLE12=adema
TTITLE13=disturbed
TTITLE14=system of a down
TTITLE15=drowing pool
TTITLE16=slipknot
TTITLE17=disturbed
TTITLE18=slipknot
TTITLE19=korn
EXTD=
EXTT0=
EXTT1=
EXTT2=
EXTT3=
EXTT4=
EXTT5=
EXTT6=
EXTT7=
EXTT8=
EXTT9=
EXTT10=
EXTT11=
EXTT12=
EXTT13=
EXTT14=
EXTT15=
EXTT16=
EXTT17=
EXTT18=
EXTT19=
PLAYORDER=
